# Blender 4.4.3
# www.blender.org
mtllib Chipsel v1.1.mtl
o Chisel
v -0.237945 1.522660 0.058812
v -0.237945 3.701368 0.010111
v -0.237945 1.522660 -0.058812
v -0.237945 3.701368 -0.010111
v 0.237945 1.522660 0.058812
v 0.237945 3.701368 0.010111
v 0.237945 1.522660 -0.058812
v 0.237945 3.701368 -0.010111
v -0.125484 1.270506 -0.058812
v -0.125484 1.270506 0.058812
v 0.125483 1.270506 -0.058812
v 0.125483 1.270506 0.058812
v -0.115646 -0.279774 -0.115646
v -0.115646 -0.279774 0.115646
v 0.115646 -0.279774 -0.115646
v 0.115646 -0.279774 0.115646
v -0.226478 -0.768517 -0.226478
v -0.226478 -0.768517 0.226478
v 0.226478 -0.768517 -0.226478
v 0.226478 -0.768517 0.226478
v -0.202454 -0.824551 -0.202454
v -0.202454 -0.824551 0.202454
v 0.202454 -0.824551 -0.202454
v 0.202454 -0.824551 0.202454
v -0.221006 -0.874359 -0.221006
v -0.221006 -0.874359 0.221006
v 0.221006 -0.874359 -0.221006
v 0.221006 -0.874359 0.221006
v -0.221006 -3.271379 -0.221006
v -0.221006 -3.271379 0.221006
v 0.221006 -3.271379 -0.221006
v 0.221006 -3.271379 0.221006
v -0.271912 -3.420803 -0.271912
v -0.271912 -3.420803 0.271912
v 0.271912 -3.420803 -0.271912
v 0.271912 -3.420803 0.271912
v -0.201732 -3.579568 -0.201732
v -0.201732 -3.579568 0.201732
v 0.201732 -3.579568 -0.201732
v 0.201732 -3.579568 0.201732
v -0.320288 -0.768517 -0.000000
v -0.000000 -0.768517 -0.320288
v 0.320288 -0.768517 0.000000
v -0.000000 -0.768517 0.320288
v -0.286313 -0.824551 -0.000000
v -0.000000 -0.824551 -0.286313
v 0.286313 -0.824551 0.000000
v -0.000000 -0.824551 0.286313
v -0.214298 -0.796534 0.214298
v 0.214298 -0.796534 0.214298
v 0.214298 -0.796534 -0.214298
v -0.214298 -0.796534 -0.214298
v -0.312550 -0.874359 -0.000000
v -0.000000 -0.874359 -0.312550
v 0.312550 -0.874359 0.000000
v -0.000000 -0.874359 0.312550
v -0.211625 -0.849455 0.211625
v 0.211625 -0.849455 0.211625
v 0.211625 -0.849455 -0.211625
v -0.211625 -0.849455 -0.211625
v -0.312550 -3.271379 -0.000000
v -0.000000 -3.271379 -0.312550
v 0.312550 -3.271379 0.000000
v -0.000000 -3.271379 0.312550
v 0.221006 -2.072870 0.221006
v 0.221006 -2.072870 -0.221006
v -0.221006 -2.072870 -0.221006
v -0.221006 -2.072870 0.221006
v -0.384542 -3.420803 -0.000000
v 0.000000 -3.420803 -0.384542
v 0.384542 -3.420803 0.000000
v -0.000000 -3.420803 0.384542
v -0.257330 -3.346092 0.257330
v 0.257330 -3.346092 0.257330
v 0.257330 -3.346092 -0.257330
v -0.257330 -3.346092 -0.257330
v -0.285292 -3.579568 0.000000
v -0.000000 -3.579568 -0.285292
v 0.285292 -3.579568 -0.000000
v 0.000000 -3.579568 0.285292
v 0.247303 -3.500185 -0.247303
v -0.247303 -3.500185 -0.247303
v 0.247303 -3.500185 0.247303
v -0.247303 -3.500185 0.247303
v -0.000000 -3.500185 0.349739
v -0.349739 -3.500185 -0.000000
v 0.349739 -3.500185 -0.000000
v -0.000000 -3.635137 0.000000
v -0.363919 -3.346092 -0.000000
v 0.363919 -3.346092 0.000000
v 0.000000 -3.346092 -0.363919
v -0.000000 -3.500185 -0.349739
v -0.000000 -2.072870 -0.312550
v -0.000000 -2.072870 0.312550
v -0.312550 -2.072870 -0.000000
v -0.000000 -3.346092 0.363919
v -0.299283 -0.849455 0.000000
v 0.299283 -0.849455 -0.000000
v -0.000000 -0.849455 -0.299283
v 0.312550 -2.072870 -0.000000
v -0.303063 -0.796534 -0.000000
v 0.303063 -0.796534 0.000000
v -0.000000 -0.796534 -0.303063
v -0.000000 -0.849455 0.299283
v -0.000000 -0.796534 0.303063
v -0.237945 3.327541 0.058812
v -0.237945 3.327541 -0.058812
v 0.237945 3.327541 -0.058812
v 0.237945 3.327541 0.058812
v -0.237945 1.522660 0.000000
v -0.237945 3.701368 0.000000
v 0.237945 1.522660 0.000000
v 0.237945 3.701368 0.000000
v -0.125484 1.270506 0.000000
v 0.125483 1.270506 0.000000
v -0.163548 -0.279774 -0.000000
v 0.163548 -0.279774 0.000000
v 0.237945 3.327541 0.000000
v -0.237945 3.327541 0.000000
v 0.000000 1.522660 -0.058812
v 0.000000 3.701368 -0.010111
v 0.000000 1.522660 0.058812
v 0.000000 3.701368 0.010111
v -0.000000 1.270506 -0.058812
v -0.000000 1.270506 0.058812
v 0.000000 -0.279774 -0.163548
v -0.000000 -0.279774 0.163548
v 0.000000 3.327541 0.058812
v 0.000000 3.327541 -0.058812
v 0.000000 3.701368 0.000000
vn -0.7321 -0.1559 0.6631
vn -0.5845 0.6097 0.5354
vn -0.7321 -0.1559 -0.6631
vn -0.5845 0.6097 -0.5354
vn 0.7321 -0.1559 0.6631
vn 0.5845 0.6097 0.5354
vn 0.7321 -0.1559 -0.6631
vn 0.5845 0.6097 -0.5354
vn -0.6365 -0.1043 -0.7642
vn -0.6365 -0.1043 0.7642
vn 0.6365 -0.1043 -0.7642
vn 0.6365 -0.1043 0.7642
vn -0.6795 0.1845 -0.7100
vn -0.6795 0.1845 0.7100
vn 0.6795 0.1845 -0.7100
vn 0.6795 0.1845 0.7100
vn -0.7028 -0.1096 -0.7028
vn -0.7028 -0.1096 0.7028
vn 0.7028 -0.1096 -0.7028
vn 0.7028 -0.1096 0.7028
vn -0.7067 -0.0336 -0.7067
vn -0.7067 -0.0336 0.7067
vn 0.7067 -0.0336 -0.7067
vn 0.7067 -0.0336 0.7067
vn -0.6882 0.2295 -0.6882
vn -0.6882 0.2295 0.6882
vn 0.6882 0.2295 -0.6882
vn 0.6882 0.2295 0.6882
vn -0.6701 0.3194 -0.6701
vn -0.6701 0.3194 0.6701
vn 0.6701 0.3194 -0.6701
vn 0.6701 0.3194 0.6701
vn -0.7055 -0.0666 -0.7055
vn -0.7055 -0.0666 0.7055
vn 0.7055 -0.0666 -0.7055
vn 0.7055 -0.0666 0.7055
vn -0.4046 -0.8201 -0.4046
vn -0.4046 -0.8201 0.4046
vn 0.4046 -0.8201 -0.4046
vn 0.4046 -0.8201 0.4046
vn -0.9940 -0.1096 -0.0000
vn -0.0000 -0.1096 -0.9940
vn 0.9940 -0.1096 -0.0000
vn -0.0000 -0.1096 0.9940
vn -0.9994 -0.0336 -0.0000
vn -0.0000 -0.0336 -0.9994
vn 0.9994 -0.0336 -0.0000
vn -0.0000 -0.0336 0.9994
vn -0.6044 -0.5191 0.6044
vn 0.6044 -0.5191 0.6044
vn 0.6044 -0.5191 -0.6044
vn -0.6044 -0.5191 -0.6044
vn -0.9733 0.2295 -0.0000
vn -0.0000 0.2295 -0.9733
vn 0.9733 0.2295 -0.0000
vn -0.0000 0.2295 0.9733
vn -0.6254 0.4665 0.6254
vn 0.6254 0.4665 0.6254
vn 0.6254 0.4665 -0.6254
vn -0.6254 0.4665 -0.6254
vn -0.9476 0.3194 -0.0000
vn -0.0000 0.3194 -0.9476
vn 0.9476 0.3194 -0.0000
vn -0.0000 0.3194 0.9476
vn 0.7071 -0.0000 0.7071
vn 0.7071 -0.0000 -0.7071
vn -0.7071 -0.0000 -0.7071
vn -0.7071 -0.0000 0.7071
vn -0.9978 -0.0666 -0.0000
vn -0.0000 -0.0666 -0.9978
vn 0.9978 -0.0666 -0.0000
vn -0.0000 -0.0666 0.9978
vn -0.6458 0.4074 0.6458
vn 0.6458 0.4074 0.6458
vn 0.6458 0.4074 -0.6458
vn -0.6458 0.4074 -0.6458
vn -0.5546 -0.8321 -0.0000
vn -0.0000 -0.8321 -0.5546
vn 0.5546 -0.8321 -0.0000
vn -0.0000 -0.8321 0.5546
vn 0.6097 -0.5065 -0.6097
vn -0.6097 -0.5065 -0.6097
vn 0.6097 -0.5065 0.6097
vn -0.6097 -0.5065 0.6097
vn -0.0000 -0.5065 0.8622
vn -0.8622 -0.5065 -0.0000
vn 0.8622 -0.5065 -0.0000
vn -0.0000 -1.0000 -0.0000
vn -0.9133 0.4074 -0.0000
vn 0.9133 0.4074 -0.0000
vn -0.0000 0.4074 -0.9133
vn -0.0000 -0.5065 -0.8622
vn -0.0000 -0.0000 -1.0000
vn -0.0000 -0.0000 1.0000
vn -1.0000 -0.0000 -0.0000
vn -0.0000 0.4074 0.9133
vn -0.8845 0.4665 -0.0000
vn 0.8845 0.4665 -0.0000
vn -0.0000 0.4665 -0.8845
vn 1.0000 -0.0000 -0.0000
vn -0.8547 -0.5191 -0.0000
vn 0.8547 -0.5191 -0.0000
vn -0.0000 -0.5191 -0.8547
vn -0.0000 0.4665 0.8845
vn -0.0000 -0.5191 0.8547
vn -0.6928 0.0467 0.7196
vn -0.6928 0.0467 -0.7196
vn 0.6928 0.0467 -0.7196
vn 0.6928 0.0467 0.7196
vn -0.9781 -0.2082 -0.0000
vn -0.7071 0.7071 -0.0000
vn 0.9781 -0.2082 -0.0000
vn 0.7071 0.7071 -0.0000
vn -0.9787 -0.2052 -0.0000
vn 0.9787 -0.2052 -0.0000
vn -0.9864 0.1646 -0.0000
vn 0.9864 0.1646 -0.0000
vn -0.0000 0.7514 -0.6599
vn -0.0000 0.7514 0.6599
vn -0.0000 0.0255 -0.9997
vn -0.0000 0.0255 0.9997
vn -0.0000 0.1822 -0.9833
vn -0.0000 0.1822 0.9833
vn -0.0000 0.0647 0.9979
vn -0.0000 0.0647 -0.9979
vn -0.0000 1.0000 -0.0000
vt 0.133294 0.918878
vt 0.111715 0.974216
vt 0.110559 0.972939
vt 0.121366 0.916548
vt 0.075143 0.913859
vt 0.076604 0.981104
vt 0.035601 0.974334
vt 0.029120 0.914196
vt 0.349495 0.916818
vt 0.328450 0.972385
vt 0.327282 0.971119
vt 0.337541 0.914604
vt 0.291277 0.912367
vt 0.293396 0.979618
vt 0.252314 0.973247
vt 0.245243 0.913153
vt 0.358113 0.564850
vt 0.346264 0.566089
vt 0.331849 0.507600
vt 0.345776 0.506371
vt 0.293512 0.981546
vt 0.251011 0.974820
vt 0.301946 0.506627
vt 0.272023 0.505910
vt 0.280893 0.133611
vt 0.310482 0.133807
vt 0.300405 0.562783
vt 0.254873 0.564293
vt 0.087684 0.564507
vt 0.042156 0.565572
vt 0.059870 0.507378
vt 0.089775 0.508388
vt 0.145349 0.567138
vt 0.133492 0.568261
vt 0.119656 0.509656
vt 0.133588 0.508563
vt 0.072199 0.135028
vt 0.044402 0.137904
vt 0.016968 0.031439
vt 0.061375 0.034652
vt 0.101775 0.135171
vt 0.340177 0.134935
vt 0.368200 0.139109
vt 0.131255 0.137536
vt 0.159579 0.141661
vt 0.311541 0.026594
vt 0.271035 0.026877
vt 0.271317 0.021011
vt 0.311572 0.020737
vt 0.252983 0.136475
vt 0.226310 0.028853
vt 0.270842 0.032528
vt 0.311535 0.032447
vt 0.353910 0.033125
vt 0.102113 0.034082
vt 0.144356 0.033858
vt 0.774788 0.510642
vt 0.729295 0.513130
vt 0.728545 0.507442
vt 0.774819 0.505117
vt 0.102026 0.028225
vt 0.061501 0.029008
vt 0.061711 0.023151
vt 0.101927 0.022312
vt 0.399984 0.023377
vt 0.353760 0.026833
vt 0.353546 0.020580
vt 0.398151 0.016968
vt 0.190302 0.023356
vt 0.144095 0.027590
vt 0.143718 0.021415
vt 0.188347 0.016968
vt 0.876191 0.272288
vt 0.825128 0.271306
vt 0.825807 0.016968
vt 0.876745 0.017044
vt 0.537312 0.510684
vt 0.491955 0.513066
vt 0.491210 0.507398
vt 0.537359 0.505156
vt 0.863335 0.523685
vt 0.819137 0.513361
vt 0.819907 0.508036
vt 0.865586 0.518507
vt 0.626131 0.523789
vt 0.581842 0.513529
vt 0.582614 0.508188
vt 0.628375 0.518601
vt 0.573275 0.760319
vt 0.507158 0.753593
vt 0.514773 0.737416
vt 0.567300 0.742464
vt 0.638803 0.272314
vt 0.587728 0.271352
vt 0.588400 0.016968
vt 0.639344 0.017041
vt 0.774350 0.270841
vt 0.723543 0.270926
vt 0.724040 0.017042
vt 0.774902 0.016968
vt 0.536934 0.270908
vt 0.486117 0.271019
vt 0.486620 0.017038
vt 0.537488 0.016968
vt 0.525763 0.624457
vt 0.567087 0.625671
vt 0.560244 0.639790
vt 0.530808 0.639273
vt 0.512160 0.592300
vt 0.580873 0.592760
vt 0.573721 0.610606
vt 0.519527 0.609577
vt 0.630462 0.642644
vt 0.628400 0.715195
vt 0.609966 0.706820
vt 0.612229 0.650318
vt 0.463613 0.705549
vt 0.464134 0.639545
vt 0.481187 0.646400
vt 0.480272 0.698760
vt 0.544761 0.675141
vt 0.581092 0.661082
vt 0.580332 0.691356
vt 0.557964 0.711602
vt 0.596366 0.655850
vt 0.594823 0.698899
vt 0.494917 0.693342
vt 0.495717 0.652804
vt 0.509713 0.659634
vt 0.509250 0.688590
vt 0.562436 0.726918
vt 0.521380 0.723282
vt 0.528649 0.709801
vt 0.495103 0.777254
vt 0.435856 0.716048
vt 0.435856 0.627215
vt 0.593749 0.563008
vt 0.662202 0.630256
vt 0.663656 0.732499
vt 0.500596 0.562904
vt 0.673752 0.271456
vt 0.673280 0.017136
vt 0.680430 0.517634
vt 0.582391 0.791206
vt 0.682822 0.523398
vt 0.730075 0.518788
vt 0.685108 0.528841
vt 0.623902 0.528969
vt 0.581043 0.518998
vt 0.445683 0.523331
vt 0.443293 0.517592
vt 0.492747 0.518678
vt 0.447968 0.528750
vt 0.861106 0.528841
vt 0.818344 0.518762
vt 0.537306 0.516197
vt 0.436374 0.271663
vt 0.435856 0.017138
vt 0.228131 0.022894
vt 0.229932 0.016968
vt 0.192375 0.030425
vt 0.018718 0.025486
vt 0.020449 0.019564
vt 0.401921 0.030462
vt 0.774760 0.516152
vt 0.233102 0.914803
vt 0.243104 0.562399
vt 0.016968 0.915726
vt 0.030411 0.563564
vt 0.258327 0.504194
vt 0.046195 0.505530
vt 0.076701 0.983032
vt 0.034283 0.975894
s 1
f 119/1/95 111/2/111 4/3/4 107/4/107
f 129/5/125 121/6/118 8/7/8 108/8/108
f 118/9/100 113/10/113 6/11/6 109/12/109
f 128/13/124 123/14/119 2/15/2 106/16/106
f 112/17/112 5/18/5 12/19/12 115/20/115
f 130/21/126 111/22/111 2/15/2 123/14/119
f 125/23/121 10/24/10 14/25/14 127/26/123
f 122/27/94 1/28/1 10/24/10 125/23/121
f 120/29/93 7/30/7 11/31/11 124/32/120
f 110/33/110 3/34/3 9/35/9 114/36/114
f 15/37/15 117/38/117 43/39/43 19/40/19
f 124/32/120 11/31/11 15/37/15 126/41/122
f 115/20/115 12/19/12 16/42/16 117/43/117
f 114/36/114 9/35/9 13/44/13 116/45/116
f 105/46/105 49/47/49 22/48/22 48/49/48
f 14/25/14 116/50/116 41/51/41 18/52/18
f 16/42/16 127/26/123 44/53/44 20/54/20
f 13/44/13 126/41/122 42/55/42 17/56/17
f 104/57/104 57/58/57 26/59/26 56/60/56
f 103/61/103 51/62/51 23/63/23 46/64/46
f 102/65/102 50/66/50 24/67/24 47/68/47
f 101/69/101 52/70/52 21/71/21 45/72/45
f 100/73/100 65/74/65 32/75/32 63/76/63
f 99/77/99 59/78/59 27/79/27 54/80/54
f 98/81/98 58/82/58 28/83/28 55/84/55
f 97/85/97 60/86/60 25/87/25 53/88/53
f 96/89/96 73/90/73 34/91/34 72/92/72
f 95/93/95 67/94/67 29/95/29 61/96/61
f 94/97/94 68/98/68 30/99/30 64/100/64
f 93/101/93 66/102/66 31/103/31 62/104/62
f 92/105/92 81/106/81 39/107/39 78/108/78
f 91/109/91 75/110/75 35/111/35 70/112/70
f 90/113/90 74/114/74 36/115/36 71/116/71
f 89/117/89 76/118/76 33/119/33 69/120/69
f 88/121/88 79/122/79 40/123/40 80/124/80
f 87/125/87 83/126/83 40/123/40 79/122/79
f 86/127/86 82/128/82 37/129/37 77/130/77
f 85/131/85 84/132/84 38/133/38 80/124/80
f 83/126/83 85/131/85 80/124/80 40/123/40
f 36/115/36 72/92/72 85/131/85 83/126/83
f 72/92/72 34/91/34 84/132/84 85/131/85
f 84/132/84 86/127/86 77/130/77 38/133/38
f 34/91/34 69/120/69 86/127/86 84/132/84
f 69/120/69 33/119/33 82/128/82 86/127/86
f 81/106/81 87/125/87 79/122/79 39/107/39
f 35/111/35 71/116/71 87/125/87 81/106/81
f 71/116/71 36/115/36 83/126/83 87/125/87
f 77/130/77 88/121/88 80/124/80 38/133/38
f 37/129/37 78/108/78 88/121/88 77/130/77
f 78/108/78 39/107/39 79/122/79 88/121/88
f 73/90/73 89/117/89 69/120/69 34/91/34
f 30/134/30 61/135/61 89/117/89 73/90/73
f 61/135/61 29/136/29 76/118/76 89/117/89
f 75/110/75 90/113/90 71/116/71 35/111/35
f 31/137/31 63/138/63 90/113/90 75/110/75
f 63/138/63 32/139/32 74/114/74 90/113/90
f 76/118/76 91/109/91 70/112/70 33/119/33
f 29/136/29 62/140/62 91/109/91 76/118/76
f 62/140/62 31/137/31 75/110/75 91/109/91
f 82/128/82 92/105/92 78/108/78 37/129/37
f 33/119/33 70/112/70 92/105/92 82/128/82
f 70/112/70 35/111/35 81/106/81 92/105/92
f 67/94/67 93/101/93 62/104/62 29/95/29
f 25/87/25 54/80/54 93/101/93 67/94/67
f 54/80/54 27/79/27 66/102/66 93/101/93
f 65/74/65 94/97/94 64/100/64 32/75/32
f 28/83/28 56/60/56 94/97/94 65/74/65
f 56/60/56 26/59/26 68/98/68 94/97/94
f 68/98/68 95/141/95 61/142/61 30/99/30
f 26/59/26 53/143/53 95/141/95 68/98/68
f 53/88/53 25/87/25 67/94/67 95/93/95
f 74/114/74 96/89/96 72/92/72 36/115/36
f 32/139/32 64/144/64 96/89/96 74/114/74
f 64/144/64 30/134/30 73/90/73 96/89/96
f 57/58/57 97/145/97 53/143/53 26/59/26
f 22/146/22 45/147/45 97/145/97 57/58/57
f 45/148/45 21/149/21 60/86/60 97/85/97
f 59/78/59 98/150/98 55/151/55 27/79/27
f 23/152/23 47/153/47 98/150/98 59/78/59
f 47/154/47 24/155/24 58/82/58 98/81/98
f 60/86/60 99/77/99 54/80/54 25/87/25
f 21/149/21 46/156/46 99/77/99 60/86/60
f 46/156/46 23/152/23 59/78/59 99/77/99
f 66/102/66 100/157/100 63/158/63 31/103/31
f 27/79/27 55/151/55 100/157/100 66/102/66
f 55/84/55 28/83/28 65/74/65 100/73/100
f 49/47/49 101/159/101 45/160/45 22/48/22
f 18/52/18 41/51/41 101/159/101 49/47/49
f 41/161/41 17/56/17 52/70/52 101/69/101
f 51/62/51 102/162/102 47/163/47 23/63/23
f 19/40/19 43/39/43 102/162/102 51/62/51
f 43/164/43 20/54/20 50/66/50 102/65/102
f 52/70/52 103/61/103 46/64/46 21/71/21
f 17/56/17 42/55/42 103/61/103 52/70/52
f 42/55/42 19/40/19 51/62/51 103/61/103
f 58/82/58 104/57/104 56/60/56 28/83/28
f 24/155/24 48/165/48 104/57/104 58/82/58
f 48/165/48 22/146/22 57/58/57 104/57/104
f 50/66/50 105/46/105 48/49/48 24/67/24
f 20/54/20 44/53/44 105/46/105 50/66/50
f 44/53/44 18/52/18 49/47/49 105/46/105
f 122/27/94 128/13/124 106/16/106 1/28/1
f 112/17/112 118/9/100 109/12/109 5/18/5
f 120/29/93 129/5/125 108/8/108 7/30/7
f 110/33/110 119/1/95 107/4/107 3/34/3
f 1/28/1 106/16/106 119/166/95 110/167/110
f 7/30/7 108/8/108 118/168/100 112/169/112
f 10/24/10 114/170/114 116/50/116 14/25/14
f 11/31/11 115/171/115 117/38/117 15/37/15
f 1/28/1 110/167/110 114/170/114 10/24/10
f 121/6/118 4/3/4 111/2/111 130/172/126
f 7/30/7 112/169/112 115/171/115 11/31/11
f 108/8/108 8/7/8 113/173/113 118/168/100
f 106/16/106 2/15/2 111/22/111 119/166/95
f 8/7/8 121/6/118 130/172/126 113/173/113
f 41/161/41 116/45/116 13/44/13 17/56/17
f 43/164/43 117/43/117 16/42/16 20/54/20
f 3/34/3 107/4/107 129/5/125 120/29/93
f 5/18/5 109/12/109 128/13/124 122/27/94
f 9/35/9 124/32/120 126/41/122 13/44/13
f 3/34/3 120/29/93 124/32/120 9/35/9
f 5/18/5 122/27/94 125/23/121 12/19/12
f 12/19/12 125/23/121 127/26/123 16/42/16
f 113/10/113 130/21/126 123/14/119 6/11/6
f 109/12/109 6/11/6 123/14/119 128/13/124
f 107/4/107 4/3/4 121/6/118 129/5/125
f 42/55/42 126/41/122 15/37/15 19/40/19
f 44/53/44 127/26/123 14/25/14 18/52/18
